<?xml version="1.0" encoding="UTF-8" standalone="no"?>
<!DOCTYPE svg PUBLIC "-//W3C//DTD SVG 1.1//EN" "http://www.w3.org/Graphics/SVG/1.1/DTD/svg11.dtd">
<svg width="100%" height="100%" viewBox="0 0 500 500" version="1.1" xmlns="http://www.w3.org/2000/svg" xmlns:xlink="http://www.w3.org/1999/xlink" xml:space="preserve" xmlns:serif="http://www.serif.com/" style="fill-rule:evenodd;clip-rule:evenodd;stroke-linejoin:round;stroke-miterlimit:2;">
    <g transform="matrix(1,0,0,1,-709,-2862)">
        <g transform="matrix(1,0,0,1.76094,2405,0)">
            <g transform="matrix(1.31579,0,0,0.74721,-2680.21,-222.579)">
                <circle cx="938" cy="2663" r="190" style="fill:none;"/>
            </g>
        </g>
        <g transform="matrix(1,0,0,1.76094,2405,0)">
            <g transform="matrix(2.66188,0,0,1.51163,-5453.51,-1190.46)">
                <path d="M1494.57,1981.27C1489.12,1986.66 1482.55,1989.36 1474.85,1989.36C1467.15,1989.36 1460.57,1986.65 1455.11,1981.24C1449.64,1975.83 1446.91,1969.31 1446.91,1961.68C1446.91,1953.91 1449.64,1947.38 1455.11,1942.07C1460.57,1936.77 1467.31,1934.12 1475.33,1934.12C1482.85,1934.12 1489.3,1936.82 1494.68,1942.23C1500.05,1947.64 1502.74,1954.13 1502.74,1961.68C1502.74,1969.35 1500.02,1975.88 1494.57,1981.27ZM1474.8,1954.1C1472.67,1954.1 1470.86,1954.87 1469.37,1956.41C1467.88,1957.96 1467.13,1959.85 1467.13,1962.08C1467.13,1964.28 1467.89,1966.16 1469.4,1967.72C1470.9,1969.29 1472.7,1970.07 1474.8,1970.07C1476.93,1970.07 1478.75,1969.29 1480.25,1967.72C1481.76,1966.16 1482.52,1964.28 1482.52,1962.08C1482.52,1959.85 1481.77,1957.96 1480.28,1956.41C1478.79,1954.87 1476.96,1954.1 1474.8,1954.1Z" style="fill:white;"/>
            </g>
        </g>
        <g transform="matrix(1,0,0,1.76094,2405,0)">
            <g transform="matrix(2.66188,0,0,1.51163,-3229.18,-515.931)">
                <path d="M714.369,1542.07C710.811,1542.07 707.581,1539.98 706.114,1536.74C702.493,1528.74 696.07,1514.55 696.07,1514.55C696.07,1514.55 700.192,1502.91 702.871,1495.35C704.218,1491.55 707.815,1489.01 711.849,1489.01L711.85,1489.01C715.035,1489.01 718.02,1490.56 719.842,1493.17C721.664,1495.79 722.094,1499.13 720.993,1502.12C718.544,1508.77 716.081,1515.46 716.081,1515.46C716.081,1515.46 719.377,1521.51 722.823,1527.85C724.445,1530.83 724.376,1534.44 722.642,1537.36C720.908,1540.28 717.766,1542.07 714.373,1542.07C714.371,1542.07 714.37,1542.07 714.369,1542.07Z" style="fill:white;"/>
            </g>
        </g>
        <g transform="matrix(1,0,0,1.76094,2405,0)">
            <g transform="matrix(2.66188,0,0,1.51163,-5453.51,-1190.46)">
                <path d="M1529.03,1982C1526.67,1984.97 1522.77,1988.29 1521,1988.29C1521,1988.29 1521,1988.29 1521,1988.29C1519.22,1988.29 1515.32,1984.97 1512.96,1982L1529.03,1982Z" style="fill:white;"/>
            </g>
        </g>
        <g transform="matrix(1,0,0,1.76094,2405,0)">
            <g transform="matrix(2.66188,0,0,1.51163,-5453.51,-1190.46)">
                <path d="M1511.04,1973L1511.04,1925.6C1511.04,1922.96 1512.09,1920.43 1513.96,1918.56C1515.82,1916.7 1518.36,1915.65 1521,1915.65C1521,1915.65 1521,1915.65 1521,1915.65C1523.63,1915.65 1526.17,1916.7 1528.03,1918.56C1529.9,1920.43 1530.95,1922.96 1530.95,1925.6L1530.95,1973L1511.04,1973Z" style="fill:white;"/>
            </g>
        </g>
    </g>
</svg>
