<?xml version="1.0" encoding="UTF-8" standalone="no"?>
<!DOCTYPE svg PUBLIC "-//W3C//DTD SVG 1.1//EN" "http://www.w3.org/Graphics/SVG/1.1/DTD/svg11.dtd">
<svg width="100%" height="100%" viewBox="0 0 1080 1203" version="1.1" xmlns="http://www.w3.org/2000/svg" xmlns:xlink="http://www.w3.org/1999/xlink" xml:space="preserve" xmlns:serif="http://www.serif.com/" style="fill-rule:evenodd;clip-rule:evenodd;stroke-linejoin:round;stroke-miterlimit:2;">
    <g transform="matrix(1,0,0,1,-577,-703.03)">
        <g transform="matrix(3.80479,0,0,3.80479,1004.09,1353.01)">
            <path d="M0,-15.966C-2.129,-15.966 -3.938,-15.195 -5.429,-13.651C-6.918,-12.108 -7.664,-10.218 -7.664,-7.983C-7.664,-5.782 -6.91,-3.903 -5.401,-2.342C-3.895,-0.779 -2.094,0 0,0C2.129,0 3.946,-0.779 5.455,-2.342C6.963,-3.903 7.718,-5.782 7.718,-7.983C7.718,-10.218 6.973,-12.108 5.482,-13.651C3.991,-15.195 2.164,-15.966 0,-15.966" style="fill:rgb(12,30,45);fill-rule:nonzero;"/>
        </g>
        <g transform="matrix(3.80479,0,0,3.80479,1267.94,1184.93)">
            <path d="M0,62.749L-12.454,28.103L-3.406,9.688L17.297,9.688L7.557,29.007L22.033,62.749L0,62.749ZM-13.198,62.749L-33.103,62.749L-33.103,-9.897L-13.198,-9.897L-13.198,62.749ZM-49.574,55.724C-55.021,61.117 -61.594,63.813 -69.293,63.813C-76.992,63.813 -83.575,61.108 -89.037,55.697C-94.502,50.287 -97.234,43.768 -97.234,36.139C-97.234,28.368 -94.502,21.832 -89.037,16.527C-83.575,11.223 -76.833,8.571 -68.813,8.571C-61.293,8.571 -54.844,11.276 -49.468,16.686C-44.093,22.097 -41.405,28.582 -41.405,36.139C-41.405,43.803 -44.129,50.331 -49.574,55.724M84.435,37.001C66.25,11.179 57.886,-38.645 57.886,-75.376C-14.123,-52.829 -48.673,-119.746 -172.688,-126.656C-143.455,-42.076 -147.213,36.704 -181.598,110.101C-85.258,108.177 -6.759,122.647 31.633,189.405C82.548,149.4 128.749,99.928 84.435,37.001" style="fill:rgb(12,30,45);fill-rule:nonzero;"/>
        </g>
    </g>
</svg>
